<svg xmlns="http://www.w3.org/2000/svg" viewBox="0 0 208.66 427.52"><defs><style>.cls-1{fill:#685454;}.cls-2{fill:#b02c51;}.cls-3{fill:#ffdec0;}.cls-4{fill:none;stroke:#000;stroke-linecap:round;stroke-miterlimit:10;stroke-width:2px;}</style></defs><title>black_judge</title><g id="Layer_2" data-name="Layer 2"><g id="black"><ellipse class="cls-1" cx="103.33" cy="326.82" rx="64.5" ry="100.5"/><path class="cls-1" d="M71.83,263.32c-3,63,3,76,15,111,10,29,22,51,11,52s-25-2-41-22-29-50-37-75-8-74,13-135,65-75,65-75h12.43s44,14,65,75,21,110,13,135-21,55-37,75-30,23-41,22,1-23,11-52c12-35,18-48,15-111"/><path class="cls-2" d="M44.83,149.32s-12-27-43-11c0,0,12,26,39,20Z"/><path class="cls-2" d="M40.31,157s-29,5.42-20.66,39.28c0,0,28.07-5.64,28.49-33.3Z"/><path class="cls-2" d="M154,145.58s15.86,11.74-7.14,48.74c0,0-53,15-104-32l8.86-16.74,47.14,4.74Z"/><path class="cls-2" d="M54.83,153.82c0,5.8-2.7,10.5-8.5,10.5a10.5,10.5,0,1,1,0-21C52.13,143.32,54.83,148,54.83,153.82Z"/><path class="cls-1" d="M174.83,86.32c-3-13-10.57-24-10.57-24,9.42-62-6.43-62-6.43-62-8,0-9,11-14.93,16a144.29,144.29,0,0,1-14.63,10.33,67.78,67.78,0,0,0-25.44-5.31,67.78,67.78,0,0,0-25.44,5.31A144.29,144.29,0,0,1,62.76,16.32c-5.93-5-6.93-16-14.93-16,0,0-15.85,0-6.43,62,0,0-7.57,11-10.57,24s-10,18-10,18,17,34.3,36,44.65c10.61,11.77,27.27,19.35,46,19.35s35.39-7.58,46-19.35c19-10.35,36-44.65,36-44.65S177.83,99.32,174.83,86.32Z"/><path class="cls-3" d="M170.83,120.32c-10-17-26-8-26-8s-17,10-21-4-14.09-18-21-18-17,4-21,18-21,4-21,4-16-9-26,8a30.16,30.16,0,0,0-2,4.09c6.51,9.43,15,19.67,24,24.56,10.61,11.77,27.27,19.35,46,19.35s35.39-7.58,46-19.35c9-4.89,17.5-15.13,24-24.56A28.92,28.92,0,0,0,170.83,120.32Z"/><path class="cls-3" d="M47.92,25.5a16,16,0,0,0,3.18,16A4.45,4.45,0,0,0,55.32,43c2.53-.5,6.24-1.89,7.51-5.71C64.41,32.58,59.75,26,54.27,22.9A4.44,4.44,0,0,0,47.92,25.5Z"/><path class="cls-3" d="M159.24,25.5a16,16,0,0,1-3.17,16A4.48,4.48,0,0,1,151.84,43c-2.53-.5-6.23-1.89-7.51-5.71-1.58-4.74,3.08-11.35,8.56-14.42A4.44,4.44,0,0,1,159.24,25.5Z"/><ellipse class="cls-3" cx="80.33" cy="72.32" rx="6" ry="10.5" transform="translate(-19.94 112.67) rotate(-63.92)"/><ellipse class="cls-3" cx="122.33" cy="72.32" rx="10.5" ry="6" transform="translate(-19.34 61.15) rotate(-26.08)"/><path d="M113.83,117.32c0,4.42-5.15,10-11.5,10s-11.5-5.58-11.5-10,5.15-6,11.5-6S113.83,112.9,113.83,117.32Z"/><path d="M67.83,88.32s9-9,13,4C80.83,92.32,72.83,100.32,67.83,88.32Z"/><path d="M137.83,88.32s-9-9-13,4C124.83,92.32,132.83,100.32,137.83,88.32Z"/><path class="cls-4" d="M83.83,141.32s20,5,19-14"/><path class="cls-4" d="M121.87,141.32s-20,5-19-14"/><path class="cls-1" d="M92.67,344.73c11.13,37.88,6.4,74.39-18,81.56S15.53,408.55,4.4,370.67s-.4-74.4,24-81.56S81.54,306.85,92.67,344.73Z"/><path class="cls-1" d="M116,344.73c-11.13,37.88-6.39,74.39,18,81.56s59.16-17.74,70.29-55.62.4-74.4-24-81.56S127.12,306.85,116,344.73Z"/><path class="cls-3" d="M150.83,207.32c-9.92-3.33-34.16,13.94-47,13-12.84.94-37.08-16.33-47-13-16.56,5.56,21,56,47,60C129.83,263.32,167.38,212.88,150.83,207.32Z"/><path class="cls-3" d="M19.83,329.32c8,25,21,55,37,75s30,23,41,22-1-23-11-52c-9.11-26.56-14.76-40.46-15.64-73.13a99.67,99.67,0,0,1-12.36,4.13c-12,3-14-4-29-9-6.59-2.2-11.43-.73-14.8,1.61C15.5,310.62,17.24,321.23,19.83,329.32Z"/><path class="cls-3" d="M188.4,329.32c-8,25-21,55-37,75s-30,23-41,22,1-23,11-52c9.1-26.56,14.75-40.46,15.64-73.13a99.07,99.07,0,0,0,12.36,4.13c12,3,14-4,29-9,6.58-2.2,11.43-.73,14.8,1.61C192.73,310.62,191,321.23,188.4,329.32Z"/></g><g id="emotions"><g id="_05" data-name="05"><path class="cls-1" d="M175.08,86c-3-13-10.57-24-10.57-24,9.42-62-6.43-62-6.43-62-8,0-9,11-14.93,16a144.29,144.29,0,0,1-14.63,10.33A67.77,67.77,0,0,0,103.08,21a67.77,67.77,0,0,0-25.44,5.3A144.29,144.29,0,0,1,63,16C57.08,11,56.08,0,48.08,0c0,0-15.85,0-6.43,62,0,0-7.57,11-10.57,24s-10,18-10,18,17,34.3,36,44.65c10.61,11.77,27.27,19.35,46,19.35s35.39-7.58,46-19.35c19-10.35,36-44.65,36-44.65S178.08,99,175.08,86Z"/><path class="cls-3" d="M171.08,120c-10-17-26-8-26-8s-17,10-21-4-14.09-18-21-18-17,4-21,18-21,4-21,4-16-9-26,8a30.16,30.16,0,0,0-2,4.09c6.51,9.44,15,19.67,24,24.56,10.61,11.77,27.27,19.35,46,19.35s35.39-7.58,46-19.35c9-4.89,17.5-15.12,24-24.56A28.92,28.92,0,0,0,171.08,120Z"/><path class="cls-3" d="M48.17,25.18a16,16,0,0,0,3.18,16.06,4.44,4.44,0,0,0,4.22,1.47c2.53-.5,6.24-1.89,7.51-5.71,1.58-4.74-3.08-11.35-8.56-14.41A4.45,4.45,0,0,0,48.17,25.18Z"/><path class="cls-3" d="M159.49,25.18a16,16,0,0,1-3.17,16.06,4.47,4.47,0,0,1-4.23,1.47c-2.53-.5-6.23-1.89-7.51-5.71-1.58-4.74,3.08-11.35,8.56-14.41A4.45,4.45,0,0,1,159.49,25.18Z"/><ellipse class="cls-3" cx="80.58" cy="72" rx="6" ry="10.5" transform="translate(-19.52 112.72) rotate(-63.92)"/><ellipse class="cls-3" cx="122.58" cy="72" rx="10.5" ry="6" transform="translate(-19.17 61.22) rotate(-26.08)"/><path d="M114.08,117c0,4.42-5.15,10-11.5,10s-11.5-5.58-11.5-10,5.15-6,11.5-6S114.08,112.58,114.08,117Z"/><path class="cls-4" d="M94.6,141.38s.25-7.75,6.72-8l.19-11.52"/><path class="cls-4" d="M108.23,141.38s-.25-7.75-6.72-8l-.19-11.52"/><path class="cls-4" d="M144.24,94.25S136.7,110.59,130.41,93"/><path class="cls-4" d="M61.29,94.25S68.83,110.59,75.12,93"/></g></g></g></svg>