<svg xmlns="http://www.w3.org/2000/svg" viewBox="0 0 208.66 427.2"><defs><style>.cls-1{fill:#fc956d;}.cls-2{fill:#be9dd1;}.cls-3{fill:#fff;}.cls-4{fill:none;stroke:#000;stroke-linecap:round;stroke-miterlimit:10;stroke-width:2px;}</style></defs><title>red_neutral</title><g id="Layer_2" data-name="Layer 2"><g id="red"><ellipse class="cls-1" cx="103.33" cy="326.5" rx="64.5" ry="100.5"/><path class="cls-1" d="M71.83,263c-3,63,3,76,15,111,10,29,22,51,11,52s-25-2-41-22-29-50-37-75-8-74,13-135,65-75,65-75h12.43s44,14,65,75,21,110,13,135-21,55-37,75-30,23-41,22,1-23,11-52c12-35,18-48,15-111"/><path class="cls-2" d="M44.83,149s-12-27-43-11c0,0,12,26,39,20Z"/><path class="cls-2" d="M40.31,156.72s-29,5.41-20.66,39.28c0,0,28.07-5.65,28.49-33.31Z"/><path class="cls-2" d="M154,145.26S169.83,157,146.83,194c0,0-53,15-104-32l8.86-16.74L98.83,150Z"/><path class="cls-2" d="M54.83,153.5c0,5.8-2.7,10.5-8.5,10.5a10.5,10.5,0,1,1,0-21C52.13,143,54.83,147.7,54.83,153.5Z"/><path class="cls-1" d="M174.83,86c-3-13-10.57-24-10.57-24,9.42-62-6.43-62-6.43-62-8,0-9,11-14.93,16a144.29,144.29,0,0,1-14.63,10.33A67.77,67.77,0,0,0,102.83,21a67.77,67.77,0,0,0-25.44,5.3A144.29,144.29,0,0,1,62.76,16C56.83,11,55.83,0,47.83,0c0,0-15.85,0-6.43,62,0,0-7.57,11-10.57,24s-10,18-10,18,17,34.3,36,44.65C67.44,160.42,84.1,168,102.83,168s35.39-7.58,46-19.35c19-10.35,36-44.65,36-44.65S177.83,99,174.83,86Z"/><path class="cls-3" d="M170.83,120c-10-17-26-8-26-8s-17,10-21-4-14.09-18-21-18-17,4-21,18-21,4-21,4-16-9-26,8a30.16,30.16,0,0,0-2,4.09c6.51,9.44,15,19.67,24,24.56C67.44,160.42,84.1,168,102.83,168s35.39-7.58,46-19.35c9-4.89,17.5-15.12,24-24.56A28.92,28.92,0,0,0,170.83,120Z"/><path class="cls-3" d="M47.92,25.18A16,16,0,0,0,51.1,41.24a4.44,4.44,0,0,0,4.22,1.47c2.53-.5,6.24-1.89,7.51-5.71,1.58-4.74-3.08-11.35-8.56-14.41A4.45,4.45,0,0,0,47.92,25.18Z"/><path class="cls-3" d="M159.24,25.18a16,16,0,0,1-3.17,16.06,4.47,4.47,0,0,1-4.23,1.47c-2.53-.5-6.23-1.89-7.51-5.71-1.58-4.74,3.08-11.35,8.56-14.41A4.45,4.45,0,0,1,159.24,25.18Z"/><ellipse class="cls-3" cx="80.33" cy="72" rx="6" ry="10.5" transform="translate(-19.66 112.49) rotate(-63.92)"/><ellipse class="cls-3" cx="122.33" cy="72" rx="10.5" ry="6" transform="translate(-19.2 61.11) rotate(-26.08)"/><path d="M113.83,117c0,4.42-5.15,10-11.5,10s-11.5-5.58-11.5-10,5.15-6,11.5-6S113.83,112.58,113.83,117Z"/><path d="M67.83,88s9-9,13,4C80.83,92,72.83,100,67.83,88Z"/><path d="M137.83,88s-9-9-13,4C124.83,92,132.83,100,137.83,88Z"/><path class="cls-4" d="M83.83,141s20,5,19-14"/><path class="cls-4" d="M121.87,141s-20,5-19-14"/><path class="cls-1" d="M92.67,344.41c11.13,37.88,6.4,74.4-18,81.56S15.53,408.23,4.4,370.35s-.4-74.4,24-81.56S81.54,306.53,92.67,344.41Z"/><path class="cls-1" d="M116,344.41c-11.13,37.88-6.39,74.4,18,81.56s59.16-17.74,70.29-55.62.4-74.4-24-81.56S127.12,306.53,116,344.41Z"/><path class="cls-3" d="M150.83,207c-9.92-3.33-34.16,13.95-47,13-12.84.95-37.08-16.33-47-13-16.56,5.56,21,56,47,60C129.83,263,167.38,212.56,150.83,207Z"/><path class="cls-3" d="M19.83,329c8,25,21,55,37,75s30,23,41,22-1-23-11-52c-9.11-26.56-14.76-40.45-15.64-73.13A99.67,99.67,0,0,1,58.83,305c-12,3-14-4-29-9-6.59-2.19-11.43-.73-14.8,1.61C15.5,310.31,17.24,320.92,19.83,329Z"/><path class="cls-3" d="M188.4,329c-8,25-21,55-37,75s-30,23-41,22,1-23,11-52c9.1-26.56,14.75-40.45,15.64-73.13A99.07,99.07,0,0,0,149.4,305c12,3,14-4,29-9,6.58-2.19,11.43-.73,14.8,1.61C192.73,310.31,191,320.92,188.4,329Z"/></g></g></svg>