<svg xmlns="http://www.w3.org/2000/svg" viewBox="1472 -99.513 375 948.402">
  <defs>
    <style>
      .cls-1, .cls-5 {
        fill: none;
        stroke-miterlimit: 10;
      }

      .cls-1 {
        stroke: #c1272d;
        stroke-width: 7px;
      }

      .cls-2 {
        fill: #f7cfa1;
      }

      .cls-3 {
        fill: #f15959;
      }

      .cls-4 {
        fill: #b02c51;
      }

      .cls-5 {
        stroke: #f15a24;
        stroke-width: 8px;
      }

      .cls-6 {
        fill: #851948;
      }
    </style>
  </defs>
  <g id="lantern_1_" transform="translate(1472 85)">
    <path id="Path_10" data-name="Path 10" class="cls-1" d="M43.5,122.509c0-111.111,130.556-105.556,130.556,0" transform="translate(77.333 73.325)"/>
    <line id="Line_1" data-name="Line 1" class="cls-1" x1="1.389" y2="378.944" transform="translate(186.111 -184.5)"/>
    <path id="Path_11" data-name="Path 11" class="cls-2" d="M220.111,249.111c0,7.778-6.389,20.555-17.5,26.667-16.944,9.167-44.444,9.444-75.556,9.444-35.833,0-66.944-2.222-82.5-13.889C37.889,266.333,34,255.222,34,249.111c0-3.889,1.667-13.056,4.444-16.667C50.667,218,85.667,213,127.056,213c38.611,0,71.667,3.611,85.833,16.389C217.611,233.833,220.111,244.111,220.111,249.111Z" transform="translate(60.444 378.667)"/>
    <ellipse id="Ellipse_3" data-name="Ellipse 3" class="cls-3" cx="187.5" cy="211.111" rx="187.5" ry="211.111" transform="translate(0 205.556)"/>
    <path id="Path_12" data-name="Path 12" class="cls-4" d="M367.778,349.833A287.023,287.023,0,0,0,375,285.111C375,168.444,319.444,74,187.5,74,50,74,0,168.444,0,285.111a308.067,308.067,0,0,0,6.944,67.222c42.222,22.222,101.667,35.556,180.556,35.556C264.167,387.889,324.444,373.444,367.778,349.833Z" transform="translate(0 131.556)"/>
    <line id="Line_2" data-name="Line 2" class="cls-5" y2="80.556" transform="translate(187.5 683.333)"/>
    <line id="Line_3" data-name="Line 3" class="cls-5" y2="80.556" transform="translate(226.389 677.778)"/>
    <line id="Line_4" data-name="Line 4" class="cls-5" y2="80.556" transform="translate(151.389 677.778)"/>
    <line id="Line_5" data-name="Line 5" class="cls-5" y2="80.556" transform="translate(115.278 666.667)"/>
    <line id="Line_6" data-name="Line 6" class="cls-5" y2="80.556" transform="translate(262.5 666.667)"/>
    <path id="Path_13" data-name="Path 13" class="cls-3" d="M180.744,74C78.244,74,24.633,126.5,3.8,201.222c44.444,21.389,103.056,33.889,176.944,33.889,71.667,0,130.278-13.333,175.556-35.833C333.8,125.389,277.967,74,180.744,74Z" transform="translate(6.756 131.556)"/>
    <ellipse id="Ellipse_4" data-name="Ellipse 4" class="cls-6" cx="93.056" cy="211.111" rx="93.056" ry="211.111" transform="translate(93.711 205.882) rotate(-0.199)"/>
    <path id="Path_14" data-name="Path 14" class="cls-2" d="M220.111,101.111c0,7.778-6.389,20.556-17.5,26.667-16.944,9.167-44.444,9.444-75.556,9.444-35.833,0-66.944-2.222-82.5-13.889C37.889,118.333,34,107.222,34,101.111c0-3.889,1.667-13.056,4.444-16.667C50.667,70,85.667,65,127.056,65c38.611,0,71.667,3.611,85.833,16.389C217.611,85.833,220.111,96.111,220.111,101.111Z" transform="translate(60.444 115.556)"/>
    <path id="Path_15" data-name="Path 15" class="cls-3" d="M36.7,81.219a15.918,15.918,0,0,0,3.056,3.056c15.556,11.389,46.667,13.889,82.5,13.889,31.111,0,58.889-.278,75.556-9.444a32.192,32.192,0,0,0,9.444-7.778c-14.444-12.5-47.222-15.833-85-15.833C83.922,64.83,50.867,69,36.7,81.219Z" transform="translate(65.244 115.725)"/>
  </g>
</svg>
