<svg xmlns="http://www.w3.org/2000/svg" viewBox="2154 2683 345.86 786.623">
  <defs>
    <style>
      .cls-1 {
        fill: #eaeaea;
      }

      .cls-2 {
        fill: #b8b8d8;
      }

      .cls-3 {
        fill: #a09dce;
      }

      .cls-4 {
        fill: #eaeceb;
      }

      .cls-5 {
        fill: #d6b8db;
      }

      .cls-6 {
        fill: #be9dd1;
      }

      .cls-7 {
        fill: #745987;
      }
    </style>
  </defs>
  <g id="origami_1_" transform="translate(2144 2683)">
    <g id="Group_35" data-name="Group 35" transform="translate(119.761)">
      <path id="Path_108" data-name="Path 108" class="cls-1" d="M104,100.23,167.3,1l39.35,142Z" transform="translate(-45.831 0.711)"/>
      <path id="Path_109" data-name="Path 109" class="cls-2" d="M214.567,14.687,141,1l16.253,58.341Z" transform="translate(-19.529 0.711)"/>
      <path id="Path_110" data-name="Path 110" class="cls-2" d="M170.882,107.345l52.524-45L154.8,51.4" transform="translate(-9.719 36.539)"/>
      <path id="Path_111" data-name="Path 111" class="cls-3" d="M228.971,90.506,206.729,58,178.5,81.61Z" transform="translate(7.129 41.23)"/>
      <path id="Path_112" data-name="Path 112" class="cls-2" d="M89,0l25.663,100.941,37.3-58.512Z" transform="translate(-56.494)"/>
      <path id="Path_113" data-name="Path 113" class="cls-1" d="M70,37.639,102.506,0l10.607,41.574Z" transform="translate(-70)"/>
    </g>
    <g id="Group_36" data-name="Group 36" transform="translate(10.254 266.063)">
      <path id="Path_114" data-name="Path 114" class="cls-4" d="M64,200.989,106.772,124,219.689,242.05Z" transform="translate(-41.759 -94.915)"/>
      <path id="Path_115" data-name="Path 115" class="cls-5" d="M145.459,107,89,136.085l29.94,31.309Z" transform="translate(-23.987 -107)"/>
      <path id="Path_116" data-name="Path 116" class="cls-4" d="M157.34,146.35,128.256,107,113.2,141.388Z" transform="translate(-6.784 -107)"/>
      <path id="Path_117" data-name="Path 117" class="cls-5" d="M79.4,239.146,64,169l43.456,11.463Z" transform="translate(-41.759 -62.926)"/>
      <path id="Path_118" data-name="Path 118" class="cls-6" d="M51,241.1l37.639-11.976L78.545,183.1Z" transform="translate(-51 -52.903)"/>
      <path id="Path_119" data-name="Path 119" class="cls-4" d="M57.843,249.213,51,220.128,74.439,212.6Z" transform="translate(-51 -31.933)"/>
    </g>
    <g id="Group_37" data-name="Group 37" transform="translate(10 613.825)">
      <path id="Path_120" data-name="Path 120" class="cls-7" d="M152.1,299.844l-13.687,95.808H58L80.241,293Z" transform="translate(41.23 -236.541)"/>
      <path id="Path_121" data-name="Path 121" class="cls-5" d="M71,316.459l71.856,6.844L197.6,260Z" transform="translate(50.471 -260)"/>
      <path id="Path_122" data-name="Path 122" class="cls-6" d="M172.567,279,99,342.3l10.265,63.3Z" transform="translate(70.376 -246.494)"/>
      <path id="Path_123" data-name="Path 123" class="cls-5" d="M186.6,314.928,150.673,279,129.8,296.964Z" transform="translate(92.27 -246.494)"/>
      <path id="Path_124" data-name="Path 124" class="cls-6" d="M0,260,179.641,419.111H99.23Z" transform="translate(0 -260)"/>
      <rect id="Rectangle_15" data-name="Rectangle 15" class="cls-5" width="80.411" height="80.411" transform="translate(99.23 78.7)"/>
      <path id="Path_125" data-name="Path 125" class="cls-4" d="M25,400.1,81.459,306h80.411Z" transform="translate(17.772 -227.3)"/>
    </g>
  </g>
</svg>
