<svg xmlns="http://www.w3.org/2000/svg" viewBox="3354.849 3179.23 298.476 278.002">
  <defs>
    <style>
      .cls-1 {
        fill: #ffa4d0;
      }

      .cls-2 {
        fill: #f7cfa1;
      }

      .cls-3 {
        fill: none;
        stroke: #f7cfa1;
        stroke-miterlimit: 10;
        stroke-width: 3px;
      }

      .cls-4 {
        fill: #f15959;
      }
    </style>
  </defs>
  <g id="sakura_1_" transform="matrix(-0.174, 0.985, -0.985, -0.174, 3663.679, 3202.056)">
    <path id="Path_126" data-name="Path 126" class="cls-1" d="M130.466,1.215c-10.69-4.543-24.989,3.608-36.481,19.109C82.36,4.823,68.061-3.195,57.5,1.215c-14.566,6.147-16.971,33.808-5.479,61.2,10.022,23.92,27.661,40.222,41.692,40.089,14.165.668,31.937-15.635,42.227-40.089C147.57,34.89,145.031,7.5,130.466,1.215ZM78.885,51.192h0l-.267.134Z" transform="translate(15.069 0)"/>
    <path id="Path_127" data-name="Path 127" class="cls-1" d="M199.815,213.681c7.35-2.673,10.824-13.229,9.354-26.191,12.828,2.405,23.652-.134,26.859-7.216,4.41-9.755-7.082-24.588-25.389-32.873-15.9-7.216-32.2-7.35-39.02-.8-7.35,6.147-8.686,22.45-2.539,39.153C175.9,204.862,189.659,217.289,199.815,213.681Zm2.806-48.374h0l.134-.134Z" transform="translate(55.563 47.709)"/>
    <path id="Path_128" data-name="Path 128" class="cls-1" d="M189.464,98.312c.935-11.626-11.091-22.717-29.4-28.864,11.225-15.768,14.432-31.8,6.815-40.623-10.289-11.893-37.416-5.746-59.866,13.764C87.371,59.56,77.349,81.341,81.759,94.57c3.742,13.63,24.721,25.523,51.18,27.795C162.738,124.9,188.127,114.08,189.464,98.312Zm-63.34-33.674h0l-.267-.267Z" transform="translate(27.161 7.668)"/>
    <path id="Path_129" data-name="Path 129" class="cls-1" d="M121.209,180.493c11.225-3.474,16.971-18.975,15.768-38.351,18.842,4.543,35.144,1.47,40.49-8.953,7.216-14.165-8.686-37.015-35.412-50.779-23.251-11.893-47.3-13.1-57.995-3.875-11.358,8.552-14.432,32.739-6.681,58.129C86.332,165.66,105.842,185.17,121.209,180.493Zm7.483-71.892h0l.134-.267Z" transform="translate(24.593 24.373)"/>
    <path id="Path_130" data-name="Path 130" class="cls-1" d="M18.161,145.22c6.681,9.621,23.251,10.289,41.291,3.207,1.6,19.376,9.488,33.942,20.98,35.679,15.768,2.539,32.605-19.777,37.282-49.309,4.142-25.79-2.138-49.042-14.165-56.391C91.925,70.254,68,74.8,46.223,90.031,21.5,107.4,8.941,132.124,18.161,145.22Zm70.556-15.1Z" transform="translate(5.103 25.036)"/>
    <path id="Path_131" data-name="Path 131" class="cls-1" d="M22.73,29.046c-7.617,8.82-4.41,25.122,6.949,40.89-18.441,6.281-30.6,17.505-29.666,29,1.336,15.9,26.993,26.859,56.926,24.187,26.058-2.138,47.171-13.9,51.313-27.394C113.33,82.5,103.174,60.316,83,42.944,60.279,23.167,33.286,17.02,22.73,29.046ZM54.4,93.99h0v0Z" transform="translate(0 7.714)"/>
    <g id="Group_43" data-name="Group 43" transform="translate(62.284 56.938)">
      <g id="Group_38" data-name="Group 38" transform="translate(38.084)">
        <circle id="Ellipse_24" data-name="Ellipse 24" class="cls-2" cx="7.35" cy="7.35" r="7.35"/>
        <line id="Line_49" data-name="Line 49" class="cls-3" y2="43.429" transform="translate(7.35 4.009)"/>
      </g>
      <g id="Group_39" data-name="Group 39" transform="translate(45.434 27.661)">
        <circle id="Ellipse_25" data-name="Ellipse 25" class="cls-2" cx="7.35" cy="7.35" r="7.35" transform="translate(30.868)"/>
        <line id="Line_50" data-name="Line 50" class="cls-3" x1="41.425" y2="13.497" transform="translate(0 6.281)"/>
      </g>
      <g id="Group_40" data-name="Group 40" transform="translate(45.434 47.438)">
        <circle id="Ellipse_26" data-name="Ellipse 26" class="cls-2" cx="7.35" cy="7.35" r="7.35" transform="translate(18.441 23.385)"/>
        <line id="Line_51" data-name="Line 51" class="cls-3" x1="27.928" y1="33.274"/>
      </g>
      <g id="Group_41" data-name="Group 41" transform="translate(16.971 47.438)">
        <circle id="Ellipse_27" data-name="Ellipse 27" class="cls-2" cx="7.35" cy="7.35" r="7.35" transform="translate(0 26.592)"/>
        <line id="Line_52" data-name="Line 52" class="cls-3" y1="36.748" x2="22.984" transform="translate(5.479)"/>
      </g>
      <g id="Group_42" data-name="Group 42" transform="translate(0 27.661)">
        <circle id="Ellipse_28" data-name="Ellipse 28" class="cls-2" cx="7.35" cy="7.35" r="7.35"/>
        <line id="Line_53" data-name="Line 53" class="cls-3" x2="41.291" y2="13.497" transform="translate(4.142 6.281)"/>
      </g>
    </g>
    <circle id="Ellipse_29" data-name="Ellipse 29" class="cls-4" cx="18.04" cy="18.04" r="18.04" transform="translate(89.678 86.337)"/>
    <circle id="Ellipse_30" data-name="Ellipse 30" class="cls-2" cx="7.35" cy="7.35" r="7.35" transform="translate(100.368 97.027)"/>
  </g>
</svg>
