<svg xmlns="http://www.w3.org/2000/svg" viewBox="64 2621.961 107.977 104.321">
  <defs>
    <style>
      .cls-1 {
        fill: #ffa4d0;
      }

      .cls-2 {
        fill: #f7cfa1;
      }

      .cls-3, .cls-5 {
        fill: none;
        stroke-miterlimit: 10;
      }

      .cls-3 {
        stroke: #f7cfa1;
        stroke-width: 3px;
      }

      .cls-4 {
        fill: #f15959;
      }

      .cls-5 {
        stroke: #b02c51;
        stroke-linecap: round;
        stroke-linejoin: round;
        stroke-width: 15px;
      }
    </style>
  </defs>
  <g id="Group_58" data-name="Group 58" transform="translate(0 2536)">
    <g id="Group_23" data-name="Group 23" transform="translate(64 85.961)">
      <path id="Path_103" data-name="Path 103" class="cls-1" d="M87.468.587c-5.326-2.264-12.451,1.8-18.176,9.521C63.5,2.385,56.375-1.61,51.115.587c-7.257,3.063-8.456,16.845-2.73,30.494C53.379,43,62.168,51.121,69.159,51.055c7.058.333,15.913-7.79,21.039-19.974C95.991,17.365,94.725,3.716,87.468.587Zm-25.7,24.9h0l-.133.067Z" transform="translate(-14.937 0.037)"/>
      <path id="Path_104" data-name="Path 104" class="cls-1" d="M134.907,60.406c.466-5.792-5.526-11.319-14.648-14.381,5.593-7.856,7.191-15.846,3.4-20.24-5.127-5.926-18.642-2.863-29.828,6.858-9.787,8.456-14.781,19.308-12.584,25.9,1.864,6.791,12.317,12.717,25.5,13.849C121.591,73.656,134.241,68.263,134.907,60.406ZM103.347,43.628h0l-.133-.133Z" transform="translate(-26.955 -7.583)"/>
      <path id="Path_105" data-name="Path 105" class="cls-1" d="M97.066,126.277c5.593-1.731,8.456-9.454,7.856-19.109,9.388,2.264,17.511.732,20.174-4.461,3.6-7.058-4.328-18.443-17.644-25.3-11.585-5.926-23.569-6.525-28.9-1.931-5.659,4.261-7.191,16.312-3.329,28.962C79.689,118.886,89.41,128.607,97.066,126.277Zm3.729-35.82h0l.067-.133Z" transform="translate(-24.402 -24.184)"/>
      <path id="Path_106" data-name="Path 106" class="cls-1" d="M16.643,109.691c3.329,4.794,11.585,5.127,20.573,1.6.8,9.654,4.727,16.911,10.453,17.777,7.856,1.265,16.246-9.854,18.576-24.568,2.064-12.85-1.065-24.435-7.058-28.1-5.792-4.061-17.71-1.8-28.563,5.792C18.308,90.849,12.049,103.166,16.643,109.691ZM51.8,102.168Z" transform="translate(-5.033 -24.843)"/>
      <path id="Path_107" data-name="Path 107" class="cls-1" d="M11.306,25.963c-3.8,4.394-2.2,12.517,3.462,20.374C5.58,49.466-.479,55.059-.013,60.785c.666,7.923,13.449,13.383,28.363,12.051,12.983-1.065,23.5-6.924,25.567-13.649,2.53-6.591-2.53-17.644-12.584-26.3C30.015,23.034,16.566,19.971,11.306,25.963Zm15.78,32.358h0v0Z" transform="translate(0.038 -7.629)"/>
      <g id="Group_22" data-name="Group 22" transform="translate(31.052 28.388)">
        <g id="Group_17" data-name="Group 17" transform="translate(18.975)">
          <ellipse id="Ellipse_17" data-name="Ellipse 17" class="cls-2" cx="3.662" cy="3.662" rx="3.662" ry="3.662"/>
          <line id="Line_44" data-name="Line 44" class="cls-3" y2="21.639" transform="translate(3.662 1.997)"/>
        </g>
        <g id="Group_18" data-name="Group 18" transform="translate(22.637 13.782)">
          <ellipse id="Ellipse_18" data-name="Ellipse 18" class="cls-2" cx="3.662" cy="3.662" rx="3.662" ry="3.662" transform="translate(15.38)"/>
          <line id="Line_45" data-name="Line 45" class="cls-3" x1="20.64" y2="6.725" transform="translate(0 3.129)"/>
        </g>
        <g id="Group_19" data-name="Group 19" transform="translate(22.637 23.636)">
          <ellipse id="Ellipse_19" data-name="Ellipse 19" class="cls-2" cx="3.662" cy="3.662" rx="3.662" ry="3.662" transform="translate(9.188 11.652)"/>
          <line id="Line_46" data-name="Line 46" class="cls-3" x1="13.915" y1="16.578"/>
        </g>
        <g id="Group_20" data-name="Group 20" transform="translate(8.456 23.636)">
          <ellipse id="Ellipse_20" data-name="Ellipse 20" class="cls-2" cx="3.662" cy="3.662" rx="3.662" ry="3.662" transform="translate(0 13.249)"/>
          <line id="Line_47" data-name="Line 47" class="cls-3" y1="18.31" x2="11.452" transform="translate(2.73)"/>
        </g>
        <g id="Group_21" data-name="Group 21" transform="translate(0 13.782)">
          <ellipse id="Ellipse_21" data-name="Ellipse 21" class="cls-2" cx="3.662" cy="3.662" rx="3.662" ry="3.662"/>
          <line id="Line_48" data-name="Line 48" class="cls-3" x2="20.573" y2="6.725" transform="translate(2.064 3.129)"/>
        </g>
      </g>
      <ellipse id="Ellipse_22" data-name="Ellipse 22" class="cls-4" cx="8.988" cy="8.988" rx="8.988" ry="8.988" transform="translate(44.701 43.035)"/>
      <ellipse id="Ellipse_23" data-name="Ellipse 23" class="cls-2" cx="3.662" cy="3.662" rx="3.662" ry="3.662" transform="translate(50.027 48.362)"/>
    </g>
    <g id="Group_57" data-name="Group 57" transform="translate(75.5 95.5)">
      <line id="Line_57" data-name="Line 57" class="cls-5" x2="68.5" y2="68.5" transform="translate(7.5 7.5)"/>
      <line id="Line_58" data-name="Line 58" class="cls-5" y1="69" x2="69" transform="translate(7.5 7.5)"/>
    </g>
  </g>
</svg>
